<mxfile host="app.diagrams.net" modified="2023-12-13T14:53:18.168Z" agent="Mozilla/5.0 (X11; Linux x86_64; rv:109.0) Gecko/20100101 Firefox/115.0" version="22.1.8" etag="1ho18CW5Styc5HPee0bX" type="github">
  <diagram name="Page-1" id="ySlSw5_M_sLU7GGw0Z9M">
    <mxGraphModel>
      <root>
        <mxCell id="0" />
        <mxCell id="1" parent="0" />
      </root>
    </mxGraphModel>
  </diagram>
</mxfile>
